<?xml version="1.0" encoding="utf-8"?>
<svg xmlns="http://www.w3.org/2000/svg" viewBox="0 0 421 403">
  <g fill="none" stroke="#FFFFFF" stroke-width="10" stroke-linejoin="round" stroke-linecap="round">
    <path d="M 228.0 117.0 L 372.0 28.0 L 64.0 28.0 L 26.0 117.0 L 228.0 117.0 Z M 271.0 201.0 L 409.0 12.0 L 375.0 28.0 L 208.0 135.0 L 271.0 201.0 Z M 43.0 377.0 L 213.0 269.0 L 149.0 202.0 L 12.0 391.0 L 43.0 377.0 Z M 359.0 377.0 L 398.0 288.0 L 189.0 288.0 L 47.0 377.0 L 359.0 377.0 Z"/>
  </g>
  <g>
    <polygon points="64.0,28.0 372.0,28.0 228.0,117.0 26.0,117.0" fill="#1C385B"/>
    <polygon points="189.0,288.0 398.0,288.0 359.0,377.0 47.0,377.0" fill="#1C385B"/>
    <polygon points="149.0,202.0 213.0,269.0 43.0,377.0 12.0,391.0" fill="#ED6B45"/>
    <polygon points="375.0,28.0 409.0,12.0 271.0,201.0 208.0,135.0" fill="#EC474D"/>
  </g>
</svg>